# xmcd
#
# Track frame offsets:
#	150
#	22375
#	40812
#	67702
#	83732
#	106097
#	128110
#	149772
#	167795
#	193512
#	215407
#
# Disc length: 3070 seconds
#
# Revision: 1
# Processed by: cddbd v1.4PL0 Copyright (c) Steve Scherf et al.
# Submitted via: audiograbber 1.81.03
#
DISCID=990bfc0b
DTITLE=Michael Peloquin - House Of Cards
DYEAR=2000
DGENRE=
TTITLE0=24 Hours In A Day
TTITLE1=Lose That Loser
TTITLE2=House Of Cards
TTITLE3=23 Kinds Of Fine
TTITLE4=So Close
TTITLE5=Maceosity
TTITLE6=What's Yours Is Yours
TTITLE7=One Time In A Row
TTITLE8=Maybe Someday Baby
TTITLE9=Don't Leave So Soon
TTITLE10=Noh-Did-Duh-Lee
EXTD=
EXTT0=
EXTT1=
EXTT2=
EXTT3=
EXTT4=
EXTT5=
EXTT6=
EXTT7=
EXTT8=
EXTT9=
EXTT10=
PLAYORDER=
